<svg width="1440" height="400" viewBox="0 0 1440 400" fill="none" xmlns="http://www.w3.org/2000/svg">
<rect width="1440" height="400" fill="#F4F4F4"/>
<path d="M565.982 127.384C564.254 127.384 562.643 127.107 561.15 126.552C559.678 125.976 558.398 125.165 557.31 124.12C556.222 123.075 555.369 121.848 554.75 120.44C554.153 119.032 553.854 117.485 553.854 115.8C553.854 114.115 554.153 112.568 554.75 111.16C555.369 109.752 556.222 108.525 557.31 107.48C558.419 106.435 559.71 105.635 561.182 105.08C562.654 104.504 564.265 104.216 566.014 104.216C567.955 104.216 569.705 104.557 571.262 105.24C572.841 105.901 574.163 106.883 575.23 108.184L571.902 111.256C571.134 110.381 570.281 109.731 569.342 109.304C568.403 108.856 567.379 108.632 566.27 108.632C565.225 108.632 564.265 108.803 563.39 109.144C562.515 109.485 561.758 109.976 561.118 110.616C560.478 111.256 559.977 112.013 559.614 112.888C559.273 113.763 559.102 114.733 559.102 115.8C559.102 116.867 559.273 117.837 559.614 118.712C559.977 119.587 560.478 120.344 561.118 120.984C561.758 121.624 562.515 122.115 563.39 122.456C564.265 122.797 565.225 122.968 566.27 122.968C567.379 122.968 568.403 122.755 569.342 122.328C570.281 121.88 571.134 121.208 571.902 120.312L575.23 123.384C574.163 124.685 572.841 125.677 571.262 126.36C569.705 127.043 567.945 127.384 565.982 127.384ZM578.066 127V103.256H583.058V127H578.066ZM596.235 127.256C594.273 127.256 592.545 126.872 591.051 126.104C589.579 125.336 588.438 124.291 587.627 122.968C586.817 121.624 586.411 120.099 586.411 118.392C586.411 116.664 586.806 115.139 587.595 113.816C588.406 112.472 589.505 111.427 590.891 110.68C592.278 109.912 593.846 109.528 595.595 109.528C597.281 109.528 598.795 109.891 600.139 110.616C601.505 111.32 602.582 112.344 603.371 113.688C604.161 115.011 604.555 116.6 604.555 118.456C604.555 118.648 604.545 118.872 604.523 119.128C604.502 119.363 604.481 119.587 604.459 119.8H590.475V116.888H601.835L599.915 117.752C599.915 116.856 599.734 116.077 599.371 115.416C599.009 114.755 598.507 114.243 597.867 113.88C597.227 113.496 596.481 113.304 595.627 113.304C594.774 113.304 594.017 113.496 593.355 113.88C592.715 114.243 592.214 114.765 591.851 115.448C591.489 116.109 591.307 116.899 591.307 117.816V118.584C591.307 119.523 591.51 120.355 591.915 121.08C592.342 121.784 592.929 122.328 593.675 122.712C594.443 123.075 595.339 123.256 596.363 123.256C597.281 123.256 598.081 123.117 598.763 122.84C599.467 122.563 600.107 122.147 600.683 121.592L603.339 124.472C602.55 125.368 601.558 126.061 600.363 126.552C599.169 127.021 597.793 127.256 596.235 127.256ZM617.97 127V123.64L617.65 122.904V116.888C617.65 115.821 617.319 114.989 616.658 114.392C616.018 113.795 615.026 113.496 613.682 113.496C612.765 113.496 611.858 113.645 610.962 113.944C610.087 114.221 609.341 114.605 608.722 115.096L606.93 111.608C607.869 110.947 608.999 110.435 610.322 110.072C611.645 109.709 612.989 109.528 614.354 109.528C616.978 109.528 619.015 110.147 620.466 111.384C621.917 112.621 622.642 114.552 622.642 117.176V127H617.97ZM612.722 127.256C611.378 127.256 610.226 127.032 609.266 126.584C608.306 126.115 607.57 125.485 607.058 124.696C606.546 123.907 606.29 123.021 606.29 122.04C606.29 121.016 606.535 120.12 607.026 119.352C607.538 118.584 608.338 117.987 609.426 117.56C610.514 117.112 611.933 116.888 613.682 116.888H618.258V119.8H614.226C613.053 119.8 612.242 119.992 611.794 120.376C611.367 120.76 611.154 121.24 611.154 121.816C611.154 122.456 611.399 122.968 611.89 123.352C612.402 123.715 613.095 123.896 613.97 123.896C614.802 123.896 615.549 123.704 616.21 123.32C616.871 122.915 617.351 122.328 617.65 121.56L618.418 123.864C618.055 124.973 617.394 125.816 616.434 126.392C615.474 126.968 614.237 127.256 612.722 127.256ZM627.16 127V109.784H631.928V114.648L631.256 113.24C631.768 112.024 632.589 111.107 633.72 110.488C634.851 109.848 636.227 109.528 637.848 109.528V114.136C637.635 114.115 637.443 114.104 637.272 114.104C637.101 114.083 636.92 114.072 636.728 114.072C635.363 114.072 634.253 114.467 633.4 115.256C632.568 116.024 632.152 117.229 632.152 118.872V127H627.16ZM649.204 127.256C647.241 127.256 645.513 126.872 644.02 126.104C642.548 125.336 641.407 124.291 640.596 122.968C639.785 121.624 639.38 120.099 639.38 118.392C639.38 116.664 639.775 115.139 640.564 113.816C641.375 112.472 642.473 111.427 643.86 110.68C645.247 109.912 646.815 109.528 648.564 109.528C650.249 109.528 651.764 109.891 653.108 110.616C654.473 111.32 655.551 112.344 656.34 113.688C657.129 115.011 657.524 116.6 657.524 118.456C657.524 118.648 657.513 118.872 657.492 119.128C657.471 119.363 657.449 119.587 657.428 119.8H643.444V116.888H654.804L652.884 117.752C652.884 116.856 652.703 116.077 652.34 115.416C651.977 114.755 651.476 114.243 650.836 113.88C650.196 113.496 649.449 113.304 648.596 113.304C647.743 113.304 646.985 113.496 646.324 113.88C645.684 114.243 645.183 114.765 644.82 115.448C644.457 116.109 644.276 116.899 644.276 117.816V118.584C644.276 119.523 644.479 120.355 644.884 121.08C645.311 121.784 645.897 122.328 646.644 122.712C647.412 123.075 648.308 123.256 649.332 123.256C650.249 123.256 651.049 123.117 651.732 122.84C652.436 122.563 653.076 122.147 653.652 121.592L656.308 124.472C655.519 125.368 654.527 126.061 653.332 126.552C652.137 127.021 650.761 127.256 649.204 127.256ZM668.239 127.256C666.618 127.256 665.157 126.893 663.855 126.168C662.554 125.421 661.519 124.387 660.751 123.064C660.005 121.741 659.631 120.184 659.631 118.392C659.631 116.579 660.005 115.011 660.751 113.688C661.519 112.365 662.554 111.341 663.855 110.616C665.157 109.891 666.618 109.528 668.239 109.528C669.69 109.528 670.959 109.848 672.047 110.488C673.135 111.128 673.978 112.099 674.575 113.4C675.173 114.701 675.471 116.365 675.471 118.392C675.471 120.397 675.183 122.061 674.607 123.384C674.031 124.685 673.199 125.656 672.111 126.296C671.045 126.936 669.754 127.256 668.239 127.256ZM669.103 123.16C669.914 123.16 670.65 122.968 671.311 122.584C671.973 122.2 672.495 121.656 672.879 120.952C673.285 120.227 673.487 119.373 673.487 118.392C673.487 117.389 673.285 116.536 672.879 115.832C672.495 115.128 671.973 114.584 671.311 114.2C670.65 113.816 669.914 113.624 669.103 113.624C668.271 113.624 667.525 113.816 666.863 114.2C666.202 114.584 665.669 115.128 665.263 115.832C664.879 116.536 664.687 117.389 664.687 118.392C664.687 119.373 664.879 120.227 665.263 120.952C665.669 121.656 666.202 122.2 666.863 122.584C667.525 122.968 668.271 123.16 669.103 123.16ZM673.615 127V123.48L673.711 118.36L673.391 113.272V103.256H678.383V127H673.615ZM692.674 127V109.4C692.674 107.459 693.25 105.912 694.402 104.76C695.554 103.587 697.197 103 699.33 103C700.056 103 700.749 103.075 701.41 103.224C702.093 103.373 702.669 103.608 703.138 103.928L701.826 107.544C701.549 107.352 701.24 107.203 700.898 107.096C700.557 106.989 700.194 106.936 699.81 106.936C699.085 106.936 698.52 107.149 698.114 107.576C697.73 107.981 697.538 108.6 697.538 109.432V111.032L697.666 113.176V127H692.674ZM690.018 114.008V110.168H701.954V114.008H690.018ZM712.414 127.256C710.58 127.256 708.948 126.872 707.518 126.104C706.11 125.336 704.99 124.291 704.158 122.968C703.348 121.624 702.942 120.099 702.942 118.392C702.942 116.664 703.348 115.139 704.158 113.816C704.99 112.472 706.11 111.427 707.518 110.68C708.948 109.912 710.58 109.528 712.414 109.528C714.228 109.528 715.849 109.912 717.278 110.68C718.708 111.427 719.828 112.461 720.638 113.784C721.449 115.107 721.854 116.643 721.854 118.392C721.854 120.099 721.449 121.624 720.638 122.968C719.828 124.291 718.708 125.336 717.278 126.104C715.849 126.872 714.228 127.256 712.414 127.256ZM712.414 123.16C713.246 123.16 713.993 122.968 714.654 122.584C715.316 122.2 715.838 121.656 716.222 120.952C716.606 120.227 716.798 119.373 716.798 118.392C716.798 117.389 716.606 116.536 716.222 115.832C715.838 115.128 715.316 114.584 714.654 114.2C713.993 113.816 713.246 113.624 712.414 113.624C711.582 113.624 710.836 113.816 710.174 114.2C709.513 114.584 708.98 115.128 708.574 115.832C708.19 116.536 707.998 117.389 707.998 118.392C707.998 119.373 708.19 120.227 708.574 120.952C708.98 121.656 709.513 122.2 710.174 122.584C710.836 122.968 711.582 123.16 712.414 123.16ZM725.191 127V109.784H729.959V114.648L729.287 113.24C729.799 112.024 730.621 111.107 731.751 110.488C732.882 109.848 734.258 109.528 735.879 109.528V114.136C735.666 114.115 735.474 114.104 735.303 114.104C735.133 114.083 734.951 114.072 734.759 114.072C733.394 114.072 732.285 114.467 731.431 115.256C730.599 116.024 730.183 117.229 730.183 118.872V127H725.191ZM748.387 127V104.6H753.571V122.776H764.803V127H748.387ZM778.032 127V123.64L777.712 122.904V116.888C777.712 115.821 777.382 114.989 776.72 114.392C776.08 113.795 775.088 113.496 773.744 113.496C772.827 113.496 771.92 113.645 771.024 113.944C770.15 114.221 769.403 114.605 768.784 115.096L766.992 111.608C767.931 110.947 769.062 110.435 770.384 110.072C771.707 109.709 773.051 109.528 774.416 109.528C777.04 109.528 779.078 110.147 780.528 111.384C781.979 112.621 782.704 114.552 782.704 117.176V127H778.032ZM772.784 127.256C771.44 127.256 770.288 127.032 769.328 126.584C768.368 126.115 767.632 125.485 767.12 124.696C766.608 123.907 766.352 123.021 766.352 122.04C766.352 121.016 766.598 120.12 767.088 119.352C767.6 118.584 768.4 117.987 769.488 117.56C770.576 117.112 771.995 116.888 773.744 116.888H778.32V119.8H774.288C773.115 119.8 772.304 119.992 771.856 120.376C771.43 120.76 771.216 121.24 771.216 121.816C771.216 122.456 771.462 122.968 771.952 123.352C772.464 123.715 773.158 123.896 774.032 123.896C774.864 123.896 775.611 123.704 776.272 123.32C776.934 122.915 777.414 122.328 777.712 121.56L778.48 123.864C778.118 124.973 777.456 125.816 776.496 126.392C775.536 126.968 774.299 127.256 772.784 127.256ZM794.486 127.256C793.057 127.256 791.777 126.979 790.646 126.424C789.537 125.869 788.673 125.027 788.054 123.896C787.436 122.744 787.126 121.283 787.126 119.512V109.784H792.118V118.776C792.118 120.205 792.417 121.261 793.014 121.944C793.633 122.605 794.497 122.936 795.606 122.936C796.374 122.936 797.057 122.776 797.654 122.456C798.252 122.115 798.721 121.603 799.062 120.92C799.404 120.216 799.574 119.341 799.574 118.296V109.784H804.566V127H799.83V122.264L800.694 123.64C800.118 124.835 799.265 125.741 798.134 126.36C797.025 126.957 795.809 127.256 794.486 127.256ZM809.191 127V109.784H813.959V114.552L813.063 113.112C813.682 111.96 814.567 111.075 815.719 110.456C816.871 109.837 818.183 109.528 819.655 109.528C821.021 109.528 822.237 109.805 823.303 110.36C824.391 110.893 825.245 111.725 825.863 112.856C826.482 113.965 826.791 115.395 826.791 117.144V127H821.799V117.912C821.799 116.525 821.49 115.501 820.871 114.84C820.274 114.179 819.421 113.848 818.311 113.848C817.522 113.848 816.807 114.019 816.167 114.36C815.549 114.68 815.058 115.181 814.695 115.864C814.354 116.547 814.183 117.421 814.183 118.488V127H809.191ZM839.761 127.256C837.905 127.256 836.252 126.883 834.801 126.136C833.351 125.368 832.209 124.312 831.377 122.968C830.567 121.624 830.161 120.099 830.161 118.392C830.161 116.664 830.567 115.139 831.377 113.816C832.209 112.472 833.351 111.427 834.801 110.68C836.252 109.912 837.905 109.528 839.761 109.528C841.575 109.528 843.153 109.912 844.497 110.68C845.841 111.427 846.833 112.504 847.473 113.912L843.601 115.992C843.153 115.181 842.588 114.584 841.905 114.2C841.244 113.816 840.519 113.624 839.729 113.624C838.876 113.624 838.108 113.816 837.425 114.2C836.743 114.584 836.199 115.128 835.793 115.832C835.409 116.536 835.217 117.389 835.217 118.392C835.217 119.395 835.409 120.248 835.793 120.952C836.199 121.656 836.743 122.2 837.425 122.584C838.108 122.968 838.876 123.16 839.729 123.16C840.519 123.16 841.244 122.979 841.905 122.616C842.588 122.232 843.153 121.624 843.601 120.792L847.473 122.904C846.833 124.291 845.841 125.368 844.497 126.136C843.153 126.883 841.575 127.256 839.761 127.256ZM850.222 127V103.256H855.214V114.552L854.094 113.112C854.713 111.96 855.598 111.075 856.75 110.456C857.902 109.837 859.214 109.528 860.686 109.528C862.052 109.528 863.268 109.805 864.334 110.36C865.422 110.893 866.276 111.725 866.894 112.856C867.513 113.965 867.822 115.395 867.822 117.144V127H862.83V117.912C862.83 116.525 862.521 115.501 861.902 114.84C861.305 114.179 860.452 113.848 859.342 113.848C858.553 113.848 857.838 114.019 857.198 114.36C856.58 114.68 856.089 115.181 855.726 115.864C855.385 116.547 855.214 117.421 855.214 118.488V127H850.222ZM875.519 119.224C875.519 118.477 875.636 117.816 875.871 117.24C876.127 116.664 876.436 116.152 876.799 115.704C877.183 115.256 877.588 114.84 878.015 114.456C878.441 114.072 878.836 113.709 879.199 113.368C879.583 113.005 879.892 112.632 880.127 112.248C880.383 111.864 880.511 111.437 880.511 110.968C880.511 110.2 880.191 109.581 879.551 109.112C878.932 108.643 878.1 108.408 877.055 108.408C876.052 108.408 875.156 108.621 874.367 109.048C873.577 109.453 872.927 110.029 872.415 110.776L868.543 108.504C869.396 107.203 870.58 106.168 872.095 105.4C873.609 104.611 875.444 104.216 877.599 104.216C879.199 104.216 880.607 104.451 881.823 104.92C883.039 105.368 883.988 106.029 884.671 106.904C885.375 107.779 885.727 108.856 885.727 110.136C885.727 110.968 885.599 111.704 885.343 112.344C885.087 112.984 884.756 113.539 884.351 114.008C883.945 114.477 883.508 114.915 883.039 115.32C882.591 115.725 882.164 116.12 881.759 116.504C881.353 116.888 881.012 117.293 880.735 117.72C880.479 118.147 880.351 118.648 880.351 119.224H875.519ZM877.951 127.256C877.055 127.256 876.319 126.968 875.743 126.392C875.167 125.816 874.879 125.133 874.879 124.344C874.879 123.533 875.167 122.861 875.743 122.328C876.319 121.773 877.055 121.496 877.951 121.496C878.868 121.496 879.604 121.773 880.159 122.328C880.735 122.861 881.023 123.533 881.023 124.344C881.023 125.133 880.735 125.816 880.159 126.392C879.604 126.968 878.868 127.256 877.951 127.256Z" fill="#1A1D21"/>
<path d="M370.446 182V177.84L370.718 178.576L365.966 170.8H367.23L371.406 177.632H370.734L374.91 170.8H376.094L371.342 178.576L371.614 177.84V182H370.446ZM380.161 182.08C379.35 182.08 378.619 181.899 377.969 181.536C377.329 181.163 376.822 180.656 376.449 180.016C376.075 179.365 375.889 178.624 375.889 177.792C375.889 176.949 376.075 176.208 376.449 175.568C376.822 174.928 377.329 174.427 377.969 174.064C378.609 173.701 379.339 173.52 380.161 173.52C380.993 173.52 381.729 173.701 382.369 174.064C383.019 174.427 383.526 174.928 383.889 175.568C384.262 176.208 384.449 176.949 384.449 177.792C384.449 178.624 384.262 179.365 383.889 180.016C383.526 180.656 383.019 181.163 382.369 181.536C381.718 181.899 380.982 182.08 380.161 182.08ZM380.161 181.072C380.769 181.072 381.307 180.939 381.777 180.672C382.246 180.395 382.614 180.011 382.881 179.52C383.158 179.019 383.297 178.443 383.297 177.792C383.297 177.131 383.158 176.555 382.881 176.064C382.614 175.573 382.246 175.195 381.777 174.928C381.307 174.651 380.774 174.512 380.177 174.512C379.579 174.512 379.046 174.651 378.577 174.928C378.107 175.195 377.734 175.573 377.457 176.064C377.179 176.555 377.041 177.131 377.041 177.792C377.041 178.443 377.179 179.019 377.457 179.52C377.734 180.011 378.107 180.395 378.577 180.672C379.046 180.939 379.574 181.072 380.161 181.072ZM390.24 182.08C389.525 182.08 388.901 181.947 388.368 181.68C387.835 181.413 387.419 181.013 387.12 180.48C386.832 179.947 386.688 179.28 386.688 178.48V173.6H387.824V178.352C387.824 179.248 388.043 179.925 388.48 180.384C388.928 180.832 389.552 181.056 390.352 181.056C390.939 181.056 391.445 180.939 391.872 180.704C392.309 180.459 392.64 180.107 392.864 179.648C393.099 179.189 393.216 178.64 393.216 178V173.6H394.352V182H393.264V179.696L393.44 180.112C393.173 180.731 392.757 181.216 392.192 181.568C391.637 181.909 390.987 182.08 390.24 182.08ZM397.518 182V173.6H398.606V175.888L398.494 175.488C398.729 174.848 399.123 174.363 399.678 174.032C400.233 173.691 400.921 173.52 401.742 173.52V174.624C401.699 174.624 401.657 174.624 401.614 174.624C401.571 174.613 401.529 174.608 401.486 174.608C400.601 174.608 399.907 174.88 399.406 175.424C398.905 175.957 398.654 176.72 398.654 177.712V182H397.518ZM411.615 182.08C410.783 182.08 410.037 181.899 409.375 181.536C408.725 181.163 408.213 180.656 407.839 180.016C407.466 179.365 407.279 178.624 407.279 177.792C407.279 176.949 407.466 176.208 407.839 175.568C408.213 174.928 408.725 174.427 409.375 174.064C410.037 173.701 410.783 173.52 411.615 173.52C412.33 173.52 412.975 173.659 413.551 173.936C414.127 174.213 414.581 174.629 414.911 175.184L414.063 175.76C413.775 175.333 413.418 175.019 412.991 174.816C412.565 174.613 412.101 174.512 411.599 174.512C411.002 174.512 410.463 174.651 409.983 174.928C409.503 175.195 409.125 175.573 408.847 176.064C408.57 176.555 408.431 177.131 408.431 177.792C408.431 178.453 408.57 179.029 408.847 179.52C409.125 180.011 409.503 180.395 409.983 180.672C410.463 180.939 411.002 181.072 411.599 181.072C412.101 181.072 412.565 180.971 412.991 180.768C413.418 180.565 413.775 180.256 414.063 179.84L414.911 180.416C414.581 180.96 414.127 181.376 413.551 181.664C412.975 181.941 412.33 182.08 411.615 182.08ZM417.018 182V170.128H418.154V182H417.018ZM421.315 182V173.6H422.451V182H421.315ZM421.891 171.744C421.656 171.744 421.459 171.664 421.299 171.504C421.139 171.344 421.059 171.152 421.059 170.928C421.059 170.704 421.139 170.517 421.299 170.368C421.459 170.208 421.656 170.128 421.891 170.128C422.126 170.128 422.323 170.203 422.483 170.352C422.643 170.501 422.723 170.688 422.723 170.912C422.723 171.147 422.643 171.344 422.483 171.504C422.334 171.664 422.136 171.744 421.891 171.744ZM429.18 182.08C428.305 182.08 427.537 181.899 426.876 181.536C426.214 181.163 425.697 180.656 425.324 180.016C424.95 179.365 424.764 178.624 424.764 177.792C424.764 176.96 424.94 176.224 425.292 175.584C425.654 174.944 426.145 174.443 426.764 174.08C427.393 173.707 428.097 173.52 428.876 173.52C429.665 173.52 430.364 173.701 430.972 174.064C431.59 174.416 432.076 174.917 432.428 175.568C432.78 176.208 432.956 176.949 432.956 177.792C432.956 177.845 432.95 177.904 432.94 177.968C432.94 178.021 432.94 178.08 432.94 178.144H425.628V177.296H432.332L431.884 177.632C431.884 177.024 431.75 176.485 431.484 176.016C431.228 175.536 430.876 175.163 430.428 174.896C429.98 174.629 429.462 174.496 428.876 174.496C428.3 174.496 427.782 174.629 427.324 174.896C426.865 175.163 426.508 175.536 426.252 176.016C425.996 176.496 425.868 177.045 425.868 177.664V177.84C425.868 178.48 426.006 179.045 426.284 179.536C426.572 180.016 426.966 180.395 427.468 180.672C427.98 180.939 428.561 181.072 429.212 181.072C429.724 181.072 430.198 180.981 430.636 180.8C431.084 180.619 431.468 180.341 431.788 179.968L432.428 180.704C432.054 181.152 431.585 181.493 431.02 181.728C430.465 181.963 429.852 182.08 429.18 182.08ZM435.268 182V173.6H436.356V175.904L436.18 175.472C436.447 174.864 436.873 174.389 437.46 174.048C438.047 173.696 438.745 173.52 439.556 173.52C440.239 173.52 440.836 173.653 441.348 173.92C441.871 174.176 442.276 174.571 442.564 175.104C442.863 175.637 443.012 176.309 443.012 177.12V182H441.876V177.232C441.876 176.347 441.652 175.68 441.204 175.232C440.767 174.773 440.148 174.544 439.348 174.544C438.751 174.544 438.228 174.667 437.78 174.912C437.343 175.147 437.001 175.493 436.756 175.952C436.521 176.4 436.404 176.944 436.404 177.584V182H435.268ZM448.737 182.08C447.947 182.08 447.339 181.867 446.913 181.44C446.486 181.013 446.273 180.411 446.273 179.632V171.744H447.409V179.568C447.409 180.059 447.531 180.437 447.777 180.704C448.033 180.971 448.395 181.104 448.865 181.104C449.366 181.104 449.782 180.96 450.113 180.672L450.513 181.488C450.289 181.691 450.017 181.84 449.697 181.936C449.387 182.032 449.067 182.08 448.737 182.08ZM444.769 174.544V173.6H449.969V174.544H444.769ZM452.181 175.024L452.101 170.8H453.109L453.029 175.024H452.181ZM458.071 182.08C457.378 182.08 456.722 181.984 456.103 181.792C455.484 181.589 454.999 181.339 454.647 181.04L455.159 180.144C455.5 180.4 455.938 180.624 456.471 180.816C457.004 180.997 457.564 181.088 458.151 181.088C458.951 181.088 459.527 180.965 459.879 180.72C460.231 180.464 460.407 180.128 460.407 179.712C460.407 179.403 460.306 179.163 460.103 178.992C459.911 178.811 459.655 178.677 459.335 178.592C459.015 178.496 458.658 178.416 458.263 178.352C457.868 178.288 457.474 178.213 457.079 178.128C456.695 178.043 456.343 177.92 456.023 177.76C455.703 177.589 455.442 177.36 455.239 177.072C455.047 176.784 454.951 176.4 454.951 175.92C454.951 175.461 455.079 175.051 455.335 174.688C455.591 174.325 455.964 174.043 456.455 173.84C456.956 173.627 457.564 173.52 458.279 173.52C458.823 173.52 459.367 173.595 459.911 173.744C460.455 173.883 460.903 174.069 461.255 174.304L460.759 175.216C460.386 174.96 459.986 174.779 459.559 174.672C459.132 174.555 458.706 174.496 458.279 174.496C457.522 174.496 456.962 174.629 456.599 174.896C456.247 175.152 456.071 175.483 456.071 175.888C456.071 176.208 456.167 176.459 456.359 176.64C456.562 176.821 456.823 176.965 457.143 177.072C457.474 177.168 457.831 177.248 458.215 177.312C458.61 177.376 458.999 177.456 459.383 177.552C459.778 177.637 460.135 177.76 460.455 177.92C460.786 178.069 461.047 178.288 461.239 178.576C461.442 178.853 461.543 179.221 461.543 179.68C461.543 180.171 461.404 180.597 461.127 180.96C460.86 181.312 460.466 181.589 459.943 181.792C459.431 181.984 458.807 182.08 458.071 182.08ZM467.815 182V173.6H468.903V175.872L468.727 175.472C468.983 174.864 469.394 174.389 469.959 174.048C470.535 173.696 471.212 173.52 471.991 173.52C472.812 173.52 473.511 173.728 474.087 174.144C474.663 174.549 475.036 175.163 475.207 175.984L474.759 175.808C475.004 175.125 475.436 174.576 476.055 174.16C476.684 173.733 477.436 173.52 478.311 173.52C478.994 173.52 479.586 173.653 480.087 173.92C480.599 174.176 480.994 174.571 481.271 175.104C481.559 175.637 481.703 176.309 481.703 177.12V182H480.567V177.232C480.567 176.347 480.354 175.68 479.927 175.232C479.511 174.773 478.919 174.544 478.151 174.544C477.575 174.544 477.074 174.667 476.647 174.912C476.231 175.147 475.906 175.493 475.671 175.952C475.447 176.4 475.335 176.944 475.335 177.584V182H474.199V177.232C474.199 176.347 473.986 175.68 473.559 175.232C473.132 174.773 472.535 174.544 471.767 174.544C471.202 174.544 470.706 174.667 470.279 174.912C469.852 175.147 469.522 175.493 469.287 175.952C469.063 176.4 468.951 176.944 468.951 177.584V182H467.815ZM484.784 182V173.6H485.92V182H484.784ZM485.36 171.744C485.125 171.744 484.928 171.664 484.768 171.504C484.608 171.344 484.528 171.152 484.528 170.928C484.528 170.704 484.608 170.517 484.768 170.368C484.928 170.208 485.125 170.128 485.36 170.128C485.594 170.128 485.792 170.203 485.952 170.352C486.112 170.501 486.192 170.688 486.192 170.912C486.192 171.147 486.112 171.344 485.952 171.504C485.802 171.664 485.605 171.744 485.36 171.744ZM491.337 182.08C490.643 182.08 489.987 181.984 489.369 181.792C488.75 181.589 488.265 181.339 487.913 181.04L488.425 180.144C488.766 180.4 489.203 180.624 489.737 180.816C490.27 180.997 490.83 181.088 491.417 181.088C492.217 181.088 492.793 180.965 493.145 180.72C493.497 180.464 493.673 180.128 493.673 179.712C493.673 179.403 493.571 179.163 493.369 178.992C493.177 178.811 492.921 178.677 492.601 178.592C492.281 178.496 491.923 178.416 491.529 178.352C491.134 178.288 490.739 178.213 490.345 178.128C489.961 178.043 489.609 177.92 489.289 177.76C488.969 177.589 488.707 177.36 488.505 177.072C488.313 176.784 488.217 176.4 488.217 175.92C488.217 175.461 488.345 175.051 488.601 174.688C488.857 174.325 489.23 174.043 489.721 173.84C490.222 173.627 490.83 173.52 491.545 173.52C492.089 173.52 492.633 173.595 493.177 173.744C493.721 173.883 494.169 174.069 494.521 174.304L494.025 175.216C493.651 174.96 493.251 174.779 492.825 174.672C492.398 174.555 491.971 174.496 491.545 174.496C490.787 174.496 490.227 174.629 489.865 174.896C489.513 175.152 489.337 175.483 489.337 175.888C489.337 176.208 489.433 176.459 489.625 176.64C489.827 176.821 490.089 176.965 490.409 177.072C490.739 177.168 491.097 177.248 491.481 177.312C491.875 177.376 492.265 177.456 492.649 177.552C493.043 177.637 493.401 177.76 493.721 177.92C494.051 178.069 494.313 178.288 494.505 178.576C494.707 178.853 494.809 179.221 494.809 179.68C494.809 180.171 494.67 180.597 494.393 180.96C494.126 181.312 493.731 181.589 493.209 181.792C492.697 181.984 492.073 182.08 491.337 182.08ZM499.149 182.08C498.456 182.08 497.8 181.984 497.181 181.792C496.562 181.589 496.077 181.339 495.725 181.04L496.237 180.144C496.578 180.4 497.016 180.624 497.549 180.816C498.082 180.997 498.642 181.088 499.229 181.088C500.029 181.088 500.605 180.965 500.957 180.72C501.309 180.464 501.485 180.128 501.485 179.712C501.485 179.403 501.384 179.163 501.181 178.992C500.989 178.811 500.733 178.677 500.413 178.592C500.093 178.496 499.736 178.416 499.341 178.352C498.946 178.288 498.552 178.213 498.157 178.128C497.773 178.043 497.421 177.92 497.101 177.76C496.781 177.589 496.52 177.36 496.317 177.072C496.125 176.784 496.029 176.4 496.029 175.92C496.029 175.461 496.157 175.051 496.413 174.688C496.669 174.325 497.042 174.043 497.533 173.84C498.034 173.627 498.642 173.52 499.357 173.52C499.901 173.52 500.445 173.595 500.989 173.744C501.533 173.883 501.981 174.069 502.333 174.304L501.837 175.216C501.464 174.96 501.064 174.779 500.637 174.672C500.21 174.555 499.784 174.496 499.357 174.496C498.6 174.496 498.04 174.629 497.677 174.896C497.325 175.152 497.149 175.483 497.149 175.888C497.149 176.208 497.245 176.459 497.437 176.64C497.64 176.821 497.901 176.965 498.221 177.072C498.552 177.168 498.909 177.248 499.293 177.312C499.688 177.376 500.077 177.456 500.461 177.552C500.856 177.637 501.213 177.76 501.533 177.92C501.864 178.069 502.125 178.288 502.317 178.576C502.52 178.853 502.621 179.221 502.621 179.68C502.621 180.171 502.482 180.597 502.205 180.96C501.938 181.312 501.544 181.589 501.021 181.792C500.509 181.984 499.885 182.08 499.149 182.08ZM504.706 182V173.6H505.842V182H504.706ZM505.282 171.744C505.047 171.744 504.85 171.664 504.69 171.504C504.53 171.344 504.45 171.152 504.45 170.928C504.45 170.704 504.53 170.517 504.69 170.368C504.85 170.208 505.047 170.128 505.282 170.128C505.516 170.128 505.714 170.203 505.874 170.352C506.034 170.501 506.114 170.688 506.114 170.912C506.114 171.147 506.034 171.344 505.874 171.504C505.724 171.664 505.527 171.744 505.282 171.744ZM512.426 182.08C511.616 182.08 510.885 181.899 510.234 181.536C509.594 181.163 509.088 180.656 508.714 180.016C508.341 179.365 508.154 178.624 508.154 177.792C508.154 176.949 508.341 176.208 508.714 175.568C509.088 174.928 509.594 174.427 510.234 174.064C510.874 173.701 511.605 173.52 512.426 173.52C513.258 173.52 513.994 173.701 514.634 174.064C515.285 174.427 515.792 174.928 516.154 175.568C516.528 176.208 516.714 176.949 516.714 177.792C516.714 178.624 516.528 179.365 516.154 180.016C515.792 180.656 515.285 181.163 514.634 181.536C513.984 181.899 513.248 182.08 512.426 182.08ZM512.426 181.072C513.034 181.072 513.573 180.939 514.042 180.672C514.512 180.395 514.88 180.011 515.146 179.52C515.424 179.019 515.562 178.443 515.562 177.792C515.562 177.131 515.424 176.555 515.146 176.064C514.88 175.573 514.512 175.195 514.042 174.928C513.573 174.651 513.04 174.512 512.442 174.512C511.845 174.512 511.312 174.651 510.842 174.928C510.373 175.195 510 175.573 509.722 176.064C509.445 176.555 509.306 177.131 509.306 177.792C509.306 178.443 509.445 179.019 509.722 179.52C510 180.011 510.373 180.395 510.842 180.672C511.312 180.939 511.84 181.072 512.426 181.072ZM519.034 182V173.6H520.122V175.904L519.946 175.472C520.212 174.864 520.639 174.389 521.226 174.048C521.812 173.696 522.511 173.52 523.322 173.52C524.004 173.52 524.602 173.653 525.114 173.92C525.636 174.176 526.042 174.571 526.33 175.104C526.628 175.637 526.778 176.309 526.778 177.12V182H525.642V177.232C525.642 176.347 525.418 175.68 524.97 175.232C524.532 174.773 523.914 174.544 523.114 174.544C522.516 174.544 521.994 174.667 521.546 174.912C521.108 175.147 520.767 175.493 520.522 175.952C520.287 176.4 520.17 176.944 520.17 177.584V182H519.034ZM534.034 182V173.6H535.17V182H534.034ZM534.61 171.744C534.375 171.744 534.178 171.664 534.018 171.504C533.858 171.344 533.778 171.152 533.778 170.928C533.778 170.704 533.858 170.517 534.018 170.368C534.178 170.208 534.375 170.128 534.61 170.128C534.844 170.128 535.042 170.203 535.202 170.352C535.362 170.501 535.442 170.688 535.442 170.912C535.442 171.147 535.362 171.344 535.202 171.504C535.052 171.664 534.855 171.744 534.61 171.744ZM540.587 182.08C539.893 182.08 539.237 181.984 538.619 181.792C538 181.589 537.515 181.339 537.163 181.04L537.675 180.144C538.016 180.4 538.453 180.624 538.987 180.816C539.52 180.997 540.08 181.088 540.667 181.088C541.467 181.088 542.043 180.965 542.395 180.72C542.747 180.464 542.923 180.128 542.923 179.712C542.923 179.403 542.821 179.163 542.619 178.992C542.427 178.811 542.171 178.677 541.851 178.592C541.531 178.496 541.173 178.416 540.779 178.352C540.384 178.288 539.989 178.213 539.595 178.128C539.211 178.043 538.859 177.92 538.539 177.76C538.219 177.589 537.957 177.36 537.755 177.072C537.563 176.784 537.467 176.4 537.467 175.92C537.467 175.461 537.595 175.051 537.851 174.688C538.107 174.325 538.48 174.043 538.971 173.84C539.472 173.627 540.08 173.52 540.795 173.52C541.339 173.52 541.883 173.595 542.427 173.744C542.971 173.883 543.419 174.069 543.771 174.304L543.275 175.216C542.901 174.96 542.501 174.779 542.075 174.672C541.648 174.555 541.221 174.496 540.795 174.496C540.037 174.496 539.477 174.629 539.115 174.896C538.763 175.152 538.587 175.483 538.587 175.888C538.587 176.208 538.683 176.459 538.875 176.64C539.077 176.821 539.339 176.965 539.659 177.072C539.989 177.168 540.347 177.248 540.731 177.312C541.125 177.376 541.515 177.456 541.899 177.552C542.293 177.637 542.651 177.76 542.971 177.92C543.301 178.069 543.563 178.288 543.755 178.576C543.957 178.853 544.059 179.221 544.059 179.68C544.059 180.171 543.92 180.597 543.643 180.96C543.376 181.312 542.981 181.589 542.459 181.792C541.947 181.984 541.323 182.08 540.587 182.08ZM552.043 182L548.875 173.6H549.963L552.843 181.392H552.347L555.307 173.6H556.283L559.211 181.392H558.715L561.643 173.6H562.683L559.499 182H558.427L555.611 174.672H555.947L553.115 182H552.043ZM569.345 182V180.144L569.297 179.84V176.736C569.297 176.021 569.094 175.472 568.689 175.088C568.294 174.704 567.702 174.512 566.913 174.512C566.369 174.512 565.851 174.603 565.361 174.784C564.87 174.965 564.454 175.205 564.113 175.504L563.601 174.656C564.027 174.293 564.539 174.016 565.137 173.824C565.734 173.621 566.363 173.52 567.025 173.52C568.113 173.52 568.95 173.792 569.537 174.336C570.134 174.869 570.433 175.685 570.433 176.784V182H569.345ZM566.449 182.08C565.819 182.08 565.27 181.979 564.801 181.776C564.342 181.563 563.99 181.275 563.745 180.912C563.499 180.539 563.377 180.112 563.377 179.632C563.377 179.195 563.478 178.8 563.681 178.448C563.894 178.085 564.235 177.797 564.705 177.584C565.185 177.36 565.825 177.248 566.625 177.248H569.521V178.096H566.657C565.846 178.096 565.281 178.24 564.961 178.528C564.651 178.816 564.497 179.173 564.497 179.6C564.497 180.08 564.683 180.464 565.057 180.752C565.43 181.04 565.953 181.184 566.625 181.184C567.265 181.184 567.814 181.04 568.273 180.752C568.742 180.453 569.083 180.027 569.297 179.472L569.553 180.256C569.339 180.811 568.966 181.253 568.433 181.584C567.91 181.915 567.249 182.08 566.449 182.08ZM573.518 182V173.6H574.654V182H573.518ZM574.094 171.744C573.859 171.744 573.662 171.664 573.502 171.504C573.342 171.344 573.262 171.152 573.262 170.928C573.262 170.704 573.342 170.517 573.502 170.368C573.662 170.208 573.859 170.128 574.094 170.128C574.329 170.128 574.526 170.203 574.686 170.352C574.846 170.501 574.926 170.688 574.926 170.912C574.926 171.147 574.846 171.344 574.686 171.504C574.537 171.664 574.339 171.744 574.094 171.744ZM580.33 182.08C579.541 182.08 578.933 181.867 578.506 181.44C578.08 181.013 577.866 180.411 577.866 179.632V171.744H579.002V179.568C579.002 180.059 579.125 180.437 579.37 180.704C579.626 180.971 579.989 181.104 580.458 181.104C580.96 181.104 581.376 180.96 581.706 180.672L582.106 181.488C581.882 181.691 581.61 181.84 581.29 181.936C580.981 182.032 580.661 182.08 580.33 182.08ZM576.362 174.544V173.6H581.562V174.544H576.362ZM584.174 182V173.6H585.31V182H584.174ZM584.75 171.744C584.516 171.744 584.318 171.664 584.158 171.504C583.998 171.344 583.918 171.152 583.918 170.928C583.918 170.704 583.998 170.517 584.158 170.368C584.318 170.208 584.516 170.128 584.75 170.128C584.985 170.128 585.182 170.203 585.342 170.352C585.502 170.501 585.582 170.688 585.582 170.912C585.582 171.147 585.502 171.344 585.342 171.504C585.193 171.664 584.996 171.744 584.75 171.744ZM588.471 182V173.6H589.559V175.904L589.383 175.472C589.65 174.864 590.077 174.389 590.663 174.048C591.25 173.696 591.949 173.52 592.759 173.52C593.442 173.52 594.039 173.653 594.551 173.92C595.074 174.176 595.479 174.571 595.767 175.104C596.066 175.637 596.215 176.309 596.215 177.12V182H595.079V177.232C595.079 176.347 594.855 175.68 594.407 175.232C593.97 174.773 593.351 174.544 592.551 174.544C591.954 174.544 591.431 174.667 590.983 174.912C590.546 175.147 590.205 175.493 589.959 175.952C589.725 176.4 589.607 176.944 589.607 177.584V182H588.471ZM602.868 185.184C602.1 185.184 601.364 185.072 600.66 184.848C599.956 184.624 599.385 184.304 598.948 183.888L599.524 183.024C599.918 183.376 600.404 183.653 600.98 183.856C601.566 184.069 602.185 184.176 602.836 184.176C603.902 184.176 604.686 183.925 605.188 183.424C605.689 182.933 605.94 182.165 605.94 181.12V179.024L606.1 177.584L605.988 176.144V173.6H607.076V180.976C607.076 182.427 606.718 183.488 606.004 184.16C605.3 184.843 604.254 185.184 602.868 185.184ZM602.66 181.68C601.86 181.68 601.14 181.509 600.5 181.168C599.86 180.816 599.353 180.331 598.98 179.712C598.617 179.093 598.436 178.384 598.436 177.584C598.436 176.784 598.617 176.08 598.98 175.472C599.353 174.853 599.86 174.373 600.5 174.032C601.14 173.691 601.86 173.52 602.66 173.52C603.406 173.52 604.078 173.675 604.676 173.984C605.273 174.293 605.748 174.752 606.1 175.36C606.452 175.968 606.628 176.709 606.628 177.584C606.628 178.459 606.452 179.2 606.1 179.808C605.748 180.416 605.273 180.88 604.676 181.2C604.078 181.52 603.406 181.68 602.66 181.68ZM602.772 180.672C603.39 180.672 603.94 180.544 604.42 180.288C604.9 180.021 605.278 179.659 605.556 179.2C605.833 178.731 605.972 178.192 605.972 177.584C605.972 176.976 605.833 176.443 605.556 175.984C605.278 175.525 604.9 175.168 604.42 174.912C603.94 174.645 603.39 174.512 602.772 174.512C602.164 174.512 601.614 174.645 601.124 174.912C600.644 175.168 600.265 175.525 599.988 175.984C599.721 176.443 599.588 176.976 599.588 177.584C599.588 178.192 599.721 178.731 599.988 179.2C600.265 179.659 600.644 180.021 601.124 180.288C601.614 180.544 602.164 180.672 602.772 180.672ZM617.848 182.08C617.038 182.08 616.307 181.899 615.656 181.536C615.016 181.163 614.51 180.656 614.136 180.016C613.763 179.365 613.576 178.624 613.576 177.792C613.576 176.949 613.763 176.208 614.136 175.568C614.51 174.928 615.016 174.427 615.656 174.064C616.296 173.701 617.027 173.52 617.848 173.52C618.68 173.52 619.416 173.701 620.056 174.064C620.707 174.427 621.214 174.928 621.576 175.568C621.95 176.208 622.136 176.949 622.136 177.792C622.136 178.624 621.95 179.365 621.576 180.016C621.214 180.656 620.707 181.163 620.056 181.536C619.406 181.899 618.67 182.08 617.848 182.08ZM617.848 181.072C618.456 181.072 618.995 180.939 619.464 180.672C619.934 180.395 620.302 180.011 620.568 179.52C620.846 179.019 620.984 178.443 620.984 177.792C620.984 177.131 620.846 176.555 620.568 176.064C620.302 175.573 619.934 175.195 619.464 174.928C618.995 174.651 618.462 174.512 617.864 174.512C617.267 174.512 616.734 174.651 616.264 174.928C615.795 175.195 615.422 175.573 615.144 176.064C614.867 176.555 614.728 177.131 614.728 177.792C614.728 178.443 614.867 179.019 615.144 179.52C615.422 180.011 615.795 180.395 616.264 180.672C616.734 180.939 617.262 181.072 617.848 181.072ZM624.456 182V173.6H625.544V175.904L625.368 175.472C625.634 174.864 626.061 174.389 626.648 174.048C627.234 173.696 627.933 173.52 628.744 173.52C629.426 173.52 630.024 173.653 630.536 173.92C631.058 174.176 631.464 174.571 631.752 175.104C632.05 175.637 632.2 176.309 632.2 177.12V182H631.064V177.232C631.064 176.347 630.84 175.68 630.392 175.232C629.954 174.773 629.336 174.544 628.536 174.544C627.938 174.544 627.416 174.667 626.968 174.912C626.53 175.147 626.189 175.493 625.944 175.952C625.709 176.4 625.592 176.944 625.592 177.584V182H624.456ZM642.112 182.08C641.322 182.08 640.714 181.867 640.288 181.44C639.861 181.013 639.648 180.411 639.648 179.632V171.744H640.784V179.568C640.784 180.059 640.906 180.437 641.152 180.704C641.408 180.971 641.77 181.104 642.24 181.104C642.741 181.104 643.157 180.96 643.488 180.672L643.888 181.488C643.664 181.691 643.392 181.84 643.072 181.936C642.762 182.032 642.442 182.08 642.112 182.08ZM638.144 174.544V173.6H643.344V174.544H638.144ZM645.956 182V170.128H647.092V175.904L646.868 175.472C647.134 174.864 647.561 174.389 648.148 174.048C648.734 173.696 649.433 173.52 650.244 173.52C650.926 173.52 651.524 173.653 652.036 173.92C652.558 174.176 652.964 174.571 653.252 175.104C653.55 175.637 653.7 176.309 653.7 177.12V182H652.564V177.232C652.564 176.347 652.34 175.68 651.892 175.232C651.454 174.773 650.836 174.544 650.036 174.544C649.438 174.544 648.916 174.667 648.468 174.912C648.03 175.147 647.689 175.493 647.444 175.952C647.209 176.4 647.092 176.944 647.092 177.584V182H645.956ZM660.336 182.08C659.461 182.08 658.693 181.899 658.032 181.536C657.371 181.163 656.853 180.656 656.48 180.016C656.107 179.365 655.92 178.624 655.92 177.792C655.92 176.96 656.096 176.224 656.448 175.584C656.811 174.944 657.301 174.443 657.92 174.08C658.549 173.707 659.253 173.52 660.032 173.52C660.821 173.52 661.52 173.701 662.128 174.064C662.747 174.416 663.232 174.917 663.584 175.568C663.936 176.208 664.112 176.949 664.112 177.792C664.112 177.845 664.107 177.904 664.096 177.968C664.096 178.021 664.096 178.08 664.096 178.144H656.784V177.296H663.488L663.04 177.632C663.04 177.024 662.907 176.485 662.64 176.016C662.384 175.536 662.032 175.163 661.584 174.896C661.136 174.629 660.619 174.496 660.032 174.496C659.456 174.496 658.939 174.629 658.48 174.896C658.021 175.163 657.664 175.536 657.408 176.016C657.152 176.496 657.024 177.045 657.024 177.664V177.84C657.024 178.48 657.163 179.045 657.44 179.536C657.728 180.016 658.123 180.395 658.624 180.672C659.136 180.939 659.717 181.072 660.368 181.072C660.88 181.072 661.355 180.981 661.792 180.8C662.24 180.619 662.624 180.341 662.944 179.968L663.584 180.704C663.211 181.152 662.741 181.493 662.176 181.728C661.621 181.963 661.008 182.08 660.336 182.08ZM674.948 182.08C674.222 182.08 673.566 181.915 672.98 181.584C672.393 181.243 671.924 180.757 671.572 180.128C671.23 179.488 671.06 178.709 671.06 177.792C671.06 176.875 671.23 176.101 671.572 175.472C671.913 174.832 672.377 174.347 672.964 174.016C673.55 173.685 674.212 173.52 674.948 173.52C675.748 173.52 676.462 173.701 677.092 174.064C677.732 174.416 678.233 174.917 678.596 175.568C678.958 176.208 679.14 176.949 679.14 177.792C679.14 178.645 678.958 179.392 678.596 180.032C678.233 180.672 677.732 181.173 677.092 181.536C676.462 181.899 675.748 182.08 674.948 182.08ZM670.612 185.104V173.6H671.7V176.128L671.588 177.808L671.748 179.504V185.104H670.612ZM674.868 181.072C675.465 181.072 675.998 180.939 676.468 180.672C676.937 180.395 677.31 180.011 677.588 179.52C677.865 179.019 678.004 178.443 678.004 177.792C678.004 177.141 677.865 176.571 677.588 176.08C677.31 175.589 676.937 175.205 676.468 174.928C675.998 174.651 675.465 174.512 674.868 174.512C674.27 174.512 673.732 174.651 673.252 174.928C672.782 175.205 672.409 175.589 672.132 176.08C671.865 176.571 671.732 177.141 671.732 177.792C671.732 178.443 671.865 179.019 672.132 179.52C672.409 180.011 672.782 180.395 673.252 180.672C673.732 180.939 674.27 181.072 674.868 181.072ZM686.673 182V180.144L686.625 179.84V176.736C686.625 176.021 686.422 175.472 686.017 175.088C685.622 174.704 685.03 174.512 684.241 174.512C683.697 174.512 683.179 174.603 682.689 174.784C682.198 174.965 681.782 175.205 681.441 175.504L680.929 174.656C681.355 174.293 681.867 174.016 682.465 173.824C683.062 173.621 683.691 173.52 684.353 173.52C685.441 173.52 686.278 173.792 686.865 174.336C687.462 174.869 687.761 175.685 687.761 176.784V182H686.673ZM683.777 182.08C683.147 182.08 682.598 181.979 682.129 181.776C681.67 181.563 681.318 181.275 681.073 180.912C680.827 180.539 680.705 180.112 680.705 179.632C680.705 179.195 680.806 178.8 681.009 178.448C681.222 178.085 681.563 177.797 682.033 177.584C682.513 177.36 683.153 177.248 683.953 177.248H686.849V178.096H683.985C683.174 178.096 682.609 178.24 682.289 178.528C681.979 178.816 681.825 179.173 681.825 179.6C681.825 180.08 682.011 180.464 682.385 180.752C682.758 181.04 683.281 181.184 683.953 181.184C684.593 181.184 685.142 181.04 685.601 180.752C686.07 180.453 686.411 180.027 686.625 179.472L686.881 180.256C686.667 180.811 686.294 181.253 685.761 181.584C685.238 181.915 684.577 182.08 683.777 182.08ZM694.19 182.08C693.39 182.08 692.67 181.899 692.03 181.536C691.401 181.173 690.905 180.672 690.542 180.032C690.18 179.381 689.998 178.635 689.998 177.792C689.998 176.939 690.18 176.192 690.542 175.552C690.905 174.912 691.401 174.416 692.03 174.064C692.67 173.701 693.39 173.52 694.19 173.52C694.926 173.52 695.582 173.685 696.158 174.016C696.745 174.347 697.209 174.832 697.55 175.472C697.902 176.101 698.078 176.875 698.078 177.792C698.078 178.699 697.908 179.472 697.566 180.112C697.225 180.752 696.761 181.243 696.174 181.584C695.598 181.915 694.937 182.08 694.19 182.08ZM694.27 181.072C694.868 181.072 695.401 180.939 695.87 180.672C696.35 180.395 696.724 180.011 696.99 179.52C697.268 179.019 697.406 178.443 697.406 177.792C697.406 177.131 697.268 176.555 696.99 176.064C696.724 175.573 696.35 175.195 695.87 174.928C695.401 174.651 694.868 174.512 694.27 174.512C693.684 174.512 693.156 174.651 692.686 174.928C692.217 175.195 691.844 175.573 691.566 176.064C691.289 176.555 691.15 177.131 691.15 177.792C691.15 178.443 691.289 179.019 691.566 179.52C691.844 180.011 692.217 180.395 692.686 180.672C693.156 180.939 693.684 181.072 694.27 181.072ZM697.438 182V179.472L697.55 177.776L697.39 176.08V170.128H698.526V182H697.438ZM701.802 182.08C701.567 182.08 701.365 181.995 701.194 181.824C701.034 181.653 700.954 181.445 700.954 181.2C700.954 180.944 701.034 180.736 701.194 180.576C701.365 180.416 701.567 180.336 701.802 180.336C702.037 180.336 702.234 180.416 702.394 180.576C702.565 180.736 702.65 180.944 702.65 181.2C702.65 181.445 702.565 181.653 702.394 181.824C702.234 181.995 702.037 182.08 701.802 182.08ZM712.596 182.096C711.764 182.096 710.964 181.963 710.196 181.696C709.439 181.419 708.852 181.067 708.436 180.64L708.9 179.728C709.295 180.112 709.823 180.437 710.484 180.704C711.156 180.96 711.86 181.088 712.596 181.088C713.3 181.088 713.871 181.003 714.308 180.832C714.756 180.651 715.081 180.411 715.284 180.112C715.497 179.813 715.604 179.483 715.604 179.12C715.604 178.683 715.476 178.331 715.22 178.064C714.975 177.797 714.649 177.589 714.244 177.44C713.839 177.28 713.391 177.141 712.9 177.024C712.409 176.907 711.919 176.784 711.428 176.656C710.937 176.517 710.484 176.336 710.068 176.112C709.663 175.888 709.332 175.595 709.076 175.232C708.831 174.859 708.708 174.373 708.708 173.776C708.708 173.221 708.852 172.715 709.14 172.256C709.439 171.787 709.892 171.413 710.5 171.136C711.108 170.848 711.887 170.704 712.836 170.704C713.465 170.704 714.089 170.795 714.708 170.976C715.327 171.147 715.86 171.387 716.308 171.696L715.908 172.64C715.428 172.32 714.916 172.085 714.372 171.936C713.839 171.787 713.321 171.712 712.82 171.712C712.148 171.712 711.593 171.803 711.156 171.984C710.719 172.165 710.393 172.411 710.18 172.72C709.977 173.019 709.876 173.36 709.876 173.744C709.876 174.181 709.999 174.533 710.244 174.8C710.5 175.067 710.831 175.275 711.236 175.424C711.652 175.573 712.105 175.707 712.596 175.824C713.087 175.941 713.572 176.069 714.052 176.208C714.543 176.347 714.991 176.528 715.396 176.752C715.812 176.965 716.143 177.253 716.388 177.616C716.644 177.979 716.772 178.453 716.772 179.04C716.772 179.584 716.623 180.091 716.324 180.56C716.025 181.019 715.567 181.392 714.948 181.68C714.34 181.957 713.556 182.096 712.596 182.096ZM721.768 182.08C720.978 182.08 720.37 181.867 719.944 181.44C719.517 181.013 719.304 180.411 719.304 179.632V171.744H720.44V179.568C720.44 180.059 720.562 180.437 720.808 180.704C721.064 180.971 721.426 181.104 721.896 181.104C722.397 181.104 722.813 180.96 723.144 180.672L723.544 181.488C723.32 181.691 723.048 181.84 722.728 181.936C722.418 182.032 722.098 182.08 721.768 182.08ZM717.8 174.544V173.6H723V174.544H717.8ZM725.612 182V173.6H726.7V175.888L726.588 175.488C726.822 174.848 727.217 174.363 727.772 174.032C728.326 173.691 729.014 173.52 729.836 173.52V174.624C729.793 174.624 729.75 174.624 729.708 174.624C729.665 174.613 729.622 174.608 729.58 174.608C728.694 174.608 728.001 174.88 727.5 175.424C726.998 175.957 726.748 176.72 726.748 177.712V182H725.612ZM736.641 182V180.144L736.593 179.84V176.736C736.593 176.021 736.391 175.472 735.985 175.088C735.591 174.704 734.999 174.512 734.209 174.512C733.665 174.512 733.148 174.603 732.657 174.784C732.167 174.965 731.751 175.205 731.409 175.504L730.897 174.656C731.324 174.293 731.836 174.016 732.433 173.824C733.031 173.621 733.66 173.52 734.321 173.52C735.409 173.52 736.247 173.792 736.833 174.336C737.431 174.869 737.729 175.685 737.729 176.784V182H736.641ZM733.745 182.08C733.116 182.08 732.567 181.979 732.097 181.776C731.639 181.563 731.287 181.275 731.041 180.912C730.796 180.539 730.673 180.112 730.673 179.632C730.673 179.195 730.775 178.8 730.977 178.448C731.191 178.085 731.532 177.797 732.001 177.584C732.481 177.36 733.121 177.248 733.921 177.248H736.817V178.096H733.953C733.143 178.096 732.577 178.24 732.257 178.528C731.948 178.816 731.793 179.173 731.793 179.6C731.793 180.08 731.98 180.464 732.353 180.752C732.727 181.04 733.249 181.184 733.921 181.184C734.561 181.184 735.111 181.04 735.569 180.752C736.039 180.453 736.38 180.027 736.593 179.472L736.849 180.256C736.636 180.811 736.263 181.253 735.729 181.584C735.207 181.915 734.545 182.08 733.745 182.08ZM745.151 182.08C744.426 182.08 743.77 181.915 743.183 181.584C742.596 181.243 742.127 180.757 741.775 180.128C741.434 179.488 741.263 178.709 741.263 177.792C741.263 176.875 741.434 176.101 741.775 175.472C742.116 174.832 742.58 174.347 743.167 174.016C743.754 173.685 744.415 173.52 745.151 173.52C745.951 173.52 746.666 173.701 747.295 174.064C747.935 174.416 748.436 174.917 748.799 175.568C749.162 176.208 749.343 176.949 749.343 177.792C749.343 178.645 749.162 179.392 748.799 180.032C748.436 180.672 747.935 181.173 747.295 181.536C746.666 181.899 745.951 182.08 745.151 182.08ZM740.815 185.104V173.6H741.903V176.128L741.791 177.808L741.951 179.504V185.104H740.815ZM745.071 181.072C745.668 181.072 746.202 180.939 746.671 180.672C747.14 180.395 747.514 180.011 747.791 179.52C748.068 179.019 748.207 178.443 748.207 177.792C748.207 177.141 748.068 176.571 747.791 176.08C747.514 175.589 747.14 175.205 746.671 174.928C746.202 174.651 745.668 174.512 745.071 174.512C744.474 174.512 743.935 174.651 743.455 174.928C742.986 175.205 742.612 175.589 742.335 176.08C742.068 176.571 741.935 177.141 741.935 177.792C741.935 178.443 742.068 179.019 742.335 179.52C742.612 180.011 742.986 180.395 743.455 180.672C743.935 180.939 744.474 181.072 745.071 181.072ZM755.846 182V173.6H756.982V182H755.846ZM756.422 171.744C756.188 171.744 755.99 171.664 755.83 171.504C755.67 171.344 755.59 171.152 755.59 170.928C755.59 170.704 755.67 170.517 755.83 170.368C755.99 170.208 756.188 170.128 756.422 170.128C756.657 170.128 756.854 170.203 757.014 170.352C757.174 170.501 757.254 170.688 757.254 170.912C757.254 171.147 757.174 171.344 757.014 171.504C756.865 171.664 756.668 171.744 756.422 171.744ZM760.143 182V173.6H761.231V175.904L761.055 175.472C761.322 174.864 761.748 174.389 762.335 174.048C762.922 173.696 763.62 173.52 764.431 173.52C765.114 173.52 765.711 173.653 766.223 173.92C766.746 174.176 767.151 174.571 767.439 175.104C767.738 175.637 767.887 176.309 767.887 177.12V182H766.751V177.232C766.751 176.347 766.527 175.68 766.079 175.232C765.642 174.773 765.023 174.544 764.223 174.544C763.626 174.544 763.103 174.667 762.655 174.912C762.218 175.147 761.876 175.493 761.631 175.952C761.396 176.4 761.279 176.944 761.279 177.584V182H760.143ZM770.268 184.336L770.972 181.376L771.1 182.064C770.854 182.064 770.646 181.984 770.476 181.824C770.316 181.664 770.236 181.456 770.236 181.2C770.236 180.944 770.316 180.736 770.476 180.576C770.646 180.416 770.849 180.336 771.084 180.336C771.329 180.336 771.526 180.421 771.676 180.592C771.836 180.763 771.916 180.965 771.916 181.2C771.916 181.285 771.91 181.371 771.9 181.456C771.889 181.541 771.868 181.637 771.836 181.744C771.804 181.851 771.761 181.979 771.708 182.128L771.036 184.336H770.268ZM780.79 182.08C780.096 182.08 779.44 181.984 778.822 181.792C778.203 181.589 777.718 181.339 777.366 181.04L777.878 180.144C778.219 180.4 778.656 180.624 779.19 180.816C779.723 180.997 780.283 181.088 780.87 181.088C781.67 181.088 782.246 180.965 782.598 180.72C782.95 180.464 783.126 180.128 783.126 179.712C783.126 179.403 783.024 179.163 782.822 178.992C782.63 178.811 782.374 178.677 782.054 178.592C781.734 178.496 781.376 178.416 780.982 178.352C780.587 178.288 780.192 178.213 779.798 178.128C779.414 178.043 779.062 177.92 778.742 177.76C778.422 177.589 778.16 177.36 777.958 177.072C777.766 176.784 777.67 176.4 777.67 175.92C777.67 175.461 777.798 175.051 778.054 174.688C778.31 174.325 778.683 174.043 779.174 173.84C779.675 173.627 780.283 173.52 780.998 173.52C781.542 173.52 782.086 173.595 782.63 173.744C783.174 173.883 783.622 174.069 783.974 174.304L783.478 175.216C783.104 174.96 782.704 174.779 782.278 174.672C781.851 174.555 781.424 174.496 780.998 174.496C780.24 174.496 779.68 174.629 779.318 174.896C778.966 175.152 778.79 175.483 778.79 175.888C778.79 176.208 778.886 176.459 779.078 176.64C779.28 176.821 779.542 176.965 779.862 177.072C780.192 177.168 780.55 177.248 780.934 177.312C781.328 177.376 781.718 177.456 782.102 177.552C782.496 177.637 782.854 177.76 783.174 177.92C783.504 178.069 783.766 178.288 783.958 178.576C784.16 178.853 784.262 179.221 784.262 179.68C784.262 180.171 784.123 180.597 783.846 180.96C783.579 181.312 783.184 181.589 782.662 181.792C782.15 181.984 781.526 182.08 780.79 182.08ZM787.902 182L784.734 173.6H785.822L788.702 181.392H788.206L791.166 173.6H792.142L795.07 181.392H794.574L797.502 173.6H798.542L795.358 182H794.286L791.47 174.672H791.806L788.974 182H787.902ZM805.204 182V180.144L805.156 179.84V176.736C805.156 176.021 804.953 175.472 804.548 175.088C804.153 174.704 803.561 174.512 802.772 174.512C802.228 174.512 801.711 174.603 801.22 174.784C800.729 174.965 800.313 175.205 799.972 175.504L799.46 174.656C799.887 174.293 800.399 174.016 800.996 173.824C801.593 173.621 802.223 173.52 802.884 173.52C803.972 173.52 804.809 173.792 805.396 174.336C805.993 174.869 806.292 175.685 806.292 176.784V182H805.204ZM802.308 182.08C801.679 182.08 801.129 181.979 800.66 181.776C800.201 181.563 799.849 181.275 799.604 180.912C799.359 180.539 799.236 180.112 799.236 179.632C799.236 179.195 799.337 178.8 799.54 178.448C799.753 178.085 800.095 177.797 800.564 177.584C801.044 177.36 801.684 177.248 802.484 177.248H805.38V178.096H802.516C801.705 178.096 801.14 178.24 800.82 178.528C800.511 178.816 800.356 179.173 800.356 179.6C800.356 180.08 800.543 180.464 800.916 180.752C801.289 181.04 801.812 181.184 802.484 181.184C803.124 181.184 803.673 181.04 804.132 180.752C804.601 180.453 804.943 180.027 805.156 179.472L805.412 180.256C805.199 180.811 804.825 181.253 804.292 181.584C803.769 181.915 803.108 182.08 802.308 182.08ZM813.713 182.08C812.988 182.08 812.332 181.915 811.745 181.584C811.159 181.243 810.689 180.757 810.337 180.128C809.996 179.488 809.825 178.709 809.825 177.792C809.825 176.875 809.996 176.101 810.337 175.472C810.679 174.832 811.143 174.347 811.729 174.016C812.316 173.685 812.977 173.52 813.713 173.52C814.513 173.52 815.228 173.701 815.857 174.064C816.497 174.416 816.999 174.917 817.361 175.568C817.724 176.208 817.905 176.949 817.905 177.792C817.905 178.645 817.724 179.392 817.361 180.032C816.999 180.672 816.497 181.173 815.857 181.536C815.228 181.899 814.513 182.08 813.713 182.08ZM809.377 185.104V173.6H810.465V176.128L810.353 177.808L810.513 179.504V185.104H809.377ZM813.633 181.072C814.231 181.072 814.764 180.939 815.233 180.672C815.703 180.395 816.076 180.011 816.353 179.52C816.631 179.019 816.769 178.443 816.769 177.792C816.769 177.141 816.631 176.571 816.353 176.08C816.076 175.589 815.703 175.205 815.233 174.928C814.764 174.651 814.231 174.512 813.633 174.512C813.036 174.512 812.497 174.651 812.017 174.928C811.548 175.205 811.175 175.589 810.897 176.08C810.631 176.571 810.497 177.141 810.497 177.792C810.497 178.443 810.631 179.019 810.897 179.52C811.175 180.011 811.548 180.395 812.017 180.672C812.497 180.939 813.036 181.072 813.633 181.072ZM827.065 182.08C826.275 182.08 825.667 181.867 825.241 181.44C824.814 181.013 824.601 180.411 824.601 179.632V171.744H825.737V179.568C825.737 180.059 825.859 180.437 826.105 180.704C826.361 180.971 826.723 181.104 827.193 181.104C827.694 181.104 828.11 180.96 828.441 180.672L828.841 181.488C828.617 181.691 828.345 181.84 828.025 181.936C827.715 182.032 827.395 182.08 827.065 182.08ZM823.097 174.544V173.6H828.297V174.544H823.097ZM830.909 182V170.128H832.045V175.904L831.821 175.472C832.087 174.864 832.514 174.389 833.101 174.048C833.687 173.696 834.386 173.52 835.197 173.52C835.879 173.52 836.477 173.653 836.989 173.92C837.511 174.176 837.917 174.571 838.205 175.104C838.503 175.637 838.653 176.309 838.653 177.12V182H837.517V177.232C837.517 176.347 837.293 175.68 836.845 175.232C836.407 174.773 835.789 174.544 834.989 174.544C834.391 174.544 833.869 174.667 833.421 174.912C832.983 175.147 832.642 175.493 832.397 175.952C832.162 176.4 832.045 176.944 832.045 177.584V182H830.909ZM845.289 182.08C844.415 182.08 843.647 181.899 842.985 181.536C842.324 181.163 841.807 180.656 841.433 180.016C841.06 179.365 840.873 178.624 840.873 177.792C840.873 176.96 841.049 176.224 841.401 175.584C841.764 174.944 842.255 174.443 842.873 174.08C843.503 173.707 844.207 173.52 844.985 173.52C845.775 173.52 846.473 173.701 847.081 174.064C847.7 174.416 848.185 174.917 848.537 175.568C848.889 176.208 849.065 176.949 849.065 177.792C849.065 177.845 849.06 177.904 849.049 177.968C849.049 178.021 849.049 178.08 849.049 178.144H841.737V177.296H848.441L847.993 177.632C847.993 177.024 847.86 176.485 847.593 176.016C847.337 175.536 846.985 175.163 846.537 174.896C846.089 174.629 845.572 174.496 844.985 174.496C844.409 174.496 843.892 174.629 843.433 174.896C842.975 175.163 842.617 175.536 842.361 176.016C842.105 176.496 841.977 177.045 841.977 177.664V177.84C841.977 178.48 842.116 179.045 842.393 179.536C842.681 180.016 843.076 180.395 843.577 180.672C844.089 180.939 844.671 181.072 845.321 181.072C845.833 181.072 846.308 180.981 846.745 180.8C847.193 180.619 847.577 180.341 847.897 179.968L848.537 180.704C848.164 181.152 847.695 181.493 847.129 181.728C846.575 181.963 845.961 182.08 845.289 182.08ZM859.053 182.08C858.221 182.08 857.474 181.899 856.813 181.536C856.162 181.163 855.65 180.656 855.277 180.016C854.904 179.365 854.717 178.624 854.717 177.792C854.717 176.949 854.904 176.208 855.277 175.568C855.65 174.928 856.162 174.427 856.813 174.064C857.474 173.701 858.221 173.52 859.053 173.52C859.768 173.52 860.413 173.659 860.989 173.936C861.565 174.213 862.018 174.629 862.349 175.184L861.501 175.76C861.213 175.333 860.856 175.019 860.429 174.816C860.002 174.613 859.538 174.512 859.037 174.512C858.44 174.512 857.901 174.651 857.421 174.928C856.941 175.195 856.562 175.573 856.285 176.064C856.008 176.555 855.869 177.131 855.869 177.792C855.869 178.453 856.008 179.029 856.285 179.52C856.562 180.011 856.941 180.395 857.421 180.672C857.901 180.939 858.44 181.072 859.037 181.072C859.538 181.072 860.002 180.971 860.429 180.768C860.856 180.565 861.213 180.256 861.501 179.84L862.349 180.416C862.018 180.96 861.565 181.376 860.989 181.664C860.413 181.941 859.768 182.08 859.053 182.08ZM867.864 182.08C867.053 182.08 866.323 181.899 865.672 181.536C865.032 181.163 864.525 180.656 864.152 180.016C863.779 179.365 863.592 178.624 863.592 177.792C863.592 176.949 863.779 176.208 864.152 175.568C864.525 174.928 865.032 174.427 865.672 174.064C866.312 173.701 867.043 173.52 867.864 173.52C868.696 173.52 869.432 173.701 870.072 174.064C870.723 174.427 871.229 174.928 871.592 175.568C871.965 176.208 872.152 176.949 872.152 177.792C872.152 178.624 871.965 179.365 871.592 180.016C871.229 180.656 870.723 181.163 870.072 181.536C869.421 181.899 868.685 182.08 867.864 182.08ZM867.864 181.072C868.472 181.072 869.011 180.939 869.48 180.672C869.949 180.395 870.317 180.011 870.584 179.52C870.861 179.019 871 178.443 871 177.792C871 177.131 870.861 176.555 870.584 176.064C870.317 175.573 869.949 175.195 869.48 174.928C869.011 174.651 868.477 174.512 867.88 174.512C867.283 174.512 866.749 174.651 866.28 174.928C865.811 175.195 865.437 175.573 865.16 176.064C864.883 176.555 864.744 177.131 864.744 177.792C864.744 178.443 864.883 179.019 865.16 179.52C865.437 180.011 865.811 180.395 866.28 180.672C866.749 180.939 867.277 181.072 867.864 181.072ZM878.807 182.08C878.082 182.08 877.426 181.915 876.839 181.584C876.253 181.243 875.783 180.757 875.431 180.128C875.09 179.488 874.919 178.709 874.919 177.792C874.919 176.875 875.09 176.101 875.431 175.472C875.773 174.832 876.237 174.347 876.823 174.016C877.41 173.685 878.071 173.52 878.807 173.52C879.607 173.52 880.322 173.701 880.951 174.064C881.591 174.416 882.093 174.917 882.455 175.568C882.818 176.208 882.999 176.949 882.999 177.792C882.999 178.645 882.818 179.392 882.455 180.032C882.093 180.672 881.591 181.173 880.951 181.536C880.322 181.899 879.607 182.08 878.807 182.08ZM874.471 185.104V173.6H875.559V176.128L875.447 177.808L875.607 179.504V185.104H874.471ZM878.727 181.072C879.325 181.072 879.858 180.939 880.327 180.672C880.797 180.395 881.17 180.011 881.447 179.52C881.725 179.019 881.863 178.443 881.863 177.792C881.863 177.141 881.725 176.571 881.447 176.08C881.17 175.589 880.797 175.205 880.327 174.928C879.858 174.651 879.325 174.512 878.727 174.512C878.13 174.512 877.591 174.651 877.111 174.928C876.642 175.205 876.269 175.589 875.991 176.08C875.725 176.571 875.591 177.141 875.591 177.792C875.591 178.443 875.725 179.019 875.991 179.52C876.269 180.011 876.642 180.395 877.111 180.672C877.591 180.939 878.13 181.072 878.727 181.072ZM885.145 185.184C884.75 185.184 884.371 185.12 884.009 184.992C883.657 184.864 883.353 184.672 883.097 184.416L883.625 183.568C883.838 183.771 884.067 183.925 884.313 184.032C884.569 184.149 884.851 184.208 885.161 184.208C885.534 184.208 885.854 184.101 886.121 183.888C886.398 183.685 886.659 183.323 886.905 182.8L887.449 181.568L887.577 181.392L891.033 173.6H892.153L887.945 183.008C887.71 183.552 887.449 183.984 887.161 184.304C886.883 184.624 886.579 184.848 886.249 184.976C885.918 185.115 885.55 185.184 885.145 185.184ZM887.385 182.24L883.513 173.6H884.697L888.121 181.312L887.385 182.24ZM892.518 184.336L893.222 181.376L893.35 182.064C893.104 182.064 892.896 181.984 892.726 181.824C892.566 181.664 892.486 181.456 892.486 181.2C892.486 180.944 892.566 180.736 892.726 180.576C892.896 180.416 893.099 180.336 893.334 180.336C893.579 180.336 893.776 180.421 893.926 180.592C894.086 180.763 894.166 180.965 894.166 181.2C894.166 181.285 894.16 181.371 894.15 181.456C894.139 181.541 894.118 181.637 894.086 181.744C894.054 181.851 894.011 181.979 893.958 182.128L893.286 184.336H892.518ZM906.048 182V180.144L906 179.84V176.736C906 176.021 905.797 175.472 905.392 175.088C904.997 174.704 904.405 174.512 903.616 174.512C903.072 174.512 902.554 174.603 902.064 174.784C901.573 174.965 901.157 175.205 900.816 175.504L900.304 174.656C900.73 174.293 901.242 174.016 901.84 173.824C902.437 173.621 903.066 173.52 903.728 173.52C904.816 173.52 905.653 173.792 906.24 174.336C906.837 174.869 907.136 175.685 907.136 176.784V182H906.048ZM903.152 182.08C902.522 182.08 901.973 181.979 901.504 181.776C901.045 181.563 900.693 181.275 900.448 180.912C900.202 180.539 900.08 180.112 900.08 179.632C900.08 179.195 900.181 178.8 900.384 178.448C900.597 178.085 900.938 177.797 901.408 177.584C901.888 177.36 902.528 177.248 903.328 177.248H906.224V178.096H903.36C902.549 178.096 901.984 178.24 901.664 178.528C901.354 178.816 901.2 179.173 901.2 179.6C901.2 180.08 901.386 180.464 901.76 180.752C902.133 181.04 902.656 181.184 903.328 181.184C903.968 181.184 904.517 181.04 904.976 180.752C905.445 180.453 905.786 180.027 906 179.472L906.256 180.256C906.042 180.811 905.669 181.253 905.136 181.584C904.613 181.915 903.952 182.08 903.152 182.08ZM910.221 182V173.6H911.309V175.904L911.133 175.472C911.4 174.864 911.827 174.389 912.413 174.048C913 173.696 913.699 173.52 914.509 173.52C915.192 173.52 915.789 173.653 916.301 173.92C916.824 174.176 917.229 174.571 917.517 175.104C917.816 175.637 917.965 176.309 917.965 177.12V182H916.829V177.232C916.829 176.347 916.605 175.68 916.157 175.232C915.72 174.773 915.101 174.544 914.301 174.544C913.704 174.544 913.181 174.667 912.733 174.912C912.296 175.147 911.955 175.493 911.709 175.952C911.475 176.4 911.357 176.944 911.357 177.584V182H910.221ZM924.378 182.08C923.578 182.08 922.858 181.899 922.218 181.536C921.588 181.173 921.092 180.672 920.73 180.032C920.367 179.381 920.186 178.635 920.186 177.792C920.186 176.939 920.367 176.192 920.73 175.552C921.092 174.912 921.588 174.416 922.218 174.064C922.858 173.701 923.578 173.52 924.378 173.52C925.114 173.52 925.77 173.685 926.346 174.016C926.932 174.347 927.396 174.832 927.738 175.472C928.09 176.101 928.266 176.875 928.266 177.792C928.266 178.699 928.095 179.472 927.754 180.112C927.412 180.752 926.948 181.243 926.362 181.584C925.786 181.915 925.124 182.08 924.378 182.08ZM924.458 181.072C925.055 181.072 925.588 180.939 926.058 180.672C926.538 180.395 926.911 180.011 927.178 179.52C927.455 179.019 927.594 178.443 927.594 177.792C927.594 177.131 927.455 176.555 927.178 176.064C926.911 175.573 926.538 175.195 926.058 174.928C925.588 174.651 925.055 174.512 924.458 174.512C923.871 174.512 923.343 174.651 922.874 174.928C922.404 175.195 922.031 175.573 921.754 176.064C921.476 176.555 921.338 177.131 921.338 177.792C921.338 178.443 921.476 179.019 921.754 179.52C922.031 180.011 922.404 180.395 922.874 180.672C923.343 180.939 923.871 181.072 924.458 181.072ZM927.626 182V179.472L927.738 177.776L927.578 176.08V170.128H928.714V182H927.626ZM936.065 182V170.128H937.201V182H936.065ZM940.362 182V173.6H941.498V182H940.362ZM940.938 171.744C940.703 171.744 940.506 171.664 940.346 171.504C940.186 171.344 940.106 171.152 940.106 170.928C940.106 170.704 940.186 170.517 940.346 170.368C940.506 170.208 940.703 170.128 940.938 170.128C941.172 170.128 941.37 170.203 941.53 170.352C941.69 170.501 941.77 170.688 941.77 170.912C941.77 171.147 941.69 171.344 941.53 171.504C941.38 171.664 941.183 171.744 940.938 171.744ZM948.243 185.184C947.475 185.184 946.739 185.072 946.035 184.848C945.331 184.624 944.76 184.304 944.323 183.888L944.899 183.024C945.293 183.376 945.779 183.653 946.355 183.856C946.941 184.069 947.56 184.176 948.211 184.176C949.277 184.176 950.061 183.925 950.563 183.424C951.064 182.933 951.315 182.165 951.315 181.12V179.024L951.475 177.584L951.363 176.144V173.6H952.451V180.976C952.451 182.427 952.093 183.488 951.379 184.16C950.675 184.843 949.629 185.184 948.243 185.184ZM948.035 181.68C947.235 181.68 946.515 181.509 945.875 181.168C945.235 180.816 944.728 180.331 944.355 179.712C943.992 179.093 943.811 178.384 943.811 177.584C943.811 176.784 943.992 176.08 944.355 175.472C944.728 174.853 945.235 174.373 945.875 174.032C946.515 173.691 947.235 173.52 948.035 173.52C948.781 173.52 949.453 173.675 950.051 173.984C950.648 174.293 951.123 174.752 951.475 175.36C951.827 175.968 952.003 176.709 952.003 177.584C952.003 178.459 951.827 179.2 951.475 179.808C951.123 180.416 950.648 180.88 950.051 181.2C949.453 181.52 948.781 181.68 948.035 181.68ZM948.147 180.672C948.765 180.672 949.315 180.544 949.795 180.288C950.275 180.021 950.653 179.659 950.931 179.2C951.208 178.731 951.347 178.192 951.347 177.584C951.347 176.976 951.208 176.443 950.931 175.984C950.653 175.525 950.275 175.168 949.795 174.912C949.315 174.645 948.765 174.512 948.147 174.512C947.539 174.512 946.989 174.645 946.499 174.912C946.019 175.168 945.64 175.525 945.363 175.984C945.096 176.443 944.963 176.976 944.963 177.584C944.963 178.192 945.096 178.731 945.363 179.2C945.64 179.659 946.019 180.021 946.499 180.288C946.989 180.544 947.539 180.672 948.147 180.672ZM955.612 182V170.128H956.748V175.904L956.524 175.472C956.79 174.864 957.217 174.389 957.804 174.048C958.39 173.696 959.089 173.52 959.9 173.52C960.582 173.52 961.18 173.653 961.692 173.92C962.214 174.176 962.62 174.571 962.908 175.104C963.206 175.637 963.356 176.309 963.356 177.12V182H962.22V177.232C962.22 176.347 961.996 175.68 961.548 175.232C961.11 174.773 960.492 174.544 959.692 174.544C959.094 174.544 958.572 174.667 958.124 174.912C957.686 175.147 957.345 175.493 957.1 175.952C956.865 176.4 956.748 176.944 956.748 177.584V182H955.612ZM969.08 182.08C968.291 182.08 967.683 181.867 967.256 181.44C966.83 181.013 966.616 180.411 966.616 179.632V171.744H967.752V179.568C967.752 180.059 967.875 180.437 968.12 180.704C968.376 180.971 968.739 181.104 969.208 181.104C969.71 181.104 970.126 180.96 970.456 180.672L970.856 181.488C970.632 181.691 970.36 181.84 970.04 181.936C969.731 182.032 969.411 182.08 969.08 182.08ZM965.112 174.544V173.6H970.312V174.544H965.112ZM979.768 182.08C978.978 182.08 978.37 181.867 977.944 181.44C977.517 181.013 977.304 180.411 977.304 179.632V171.744H978.44V179.568C978.44 180.059 978.562 180.437 978.808 180.704C979.064 180.971 979.426 181.104 979.896 181.104C980.397 181.104 980.813 180.96 981.144 180.672L981.544 181.488C981.32 181.691 981.048 181.84 980.728 181.936C980.418 182.032 980.098 182.08 979.768 182.08ZM975.8 174.544V173.6H981V174.544H975.8ZM983.612 182V170.128H984.748V175.904L984.524 175.472C984.79 174.864 985.217 174.389 985.804 174.048C986.39 173.696 987.089 173.52 987.9 173.52C988.582 173.52 989.18 173.653 989.692 173.92C990.214 174.176 990.62 174.571 990.908 175.104C991.206 175.637 991.356 176.309 991.356 177.12V182H990.22V177.232C990.22 176.347 989.996 175.68 989.548 175.232C989.11 174.773 988.492 174.544 987.692 174.544C987.094 174.544 986.572 174.667 986.124 174.912C985.686 175.147 985.345 175.493 985.1 175.952C984.865 176.4 984.748 176.944 984.748 177.584V182H983.612ZM997.992 182.08C997.118 182.08 996.35 181.899 995.688 181.536C995.027 181.163 994.51 180.656 994.136 180.016C993.763 179.365 993.576 178.624 993.576 177.792C993.576 176.96 993.752 176.224 994.104 175.584C994.467 174.944 994.958 174.443 995.576 174.08C996.206 173.707 996.91 173.52 997.688 173.52C998.478 173.52 999.176 173.701 999.784 174.064C1000.4 174.416 1000.89 174.917 1001.24 175.568C1001.59 176.208 1001.77 176.949 1001.77 177.792C1001.77 177.845 1001.76 177.904 1001.75 177.968C1001.75 178.021 1001.75 178.08 1001.75 178.144H994.44V177.296H1001.14L1000.7 177.632C1000.7 177.024 1000.56 176.485 1000.3 176.016C1000.04 175.536 999.688 175.163 999.24 174.896C998.792 174.629 998.275 174.496 997.688 174.496C997.112 174.496 996.595 174.629 996.136 174.896C995.678 175.163 995.32 175.536 995.064 176.016C994.808 176.496 994.68 177.045 994.68 177.664V177.84C994.68 178.48 994.819 179.045 995.096 179.536C995.384 180.016 995.779 180.395 996.28 180.672C996.792 180.939 997.374 181.072 998.024 181.072C998.536 181.072 999.011 180.981 999.448 180.8C999.896 180.619 1000.28 180.341 1000.6 179.968L1001.24 180.704C1000.87 181.152 1000.4 181.493 999.832 181.728C999.278 181.963 998.664 182.08 997.992 182.08ZM1011.84 182.08C1010.96 182.08 1010.19 181.899 1009.53 181.536C1008.87 181.163 1008.35 180.656 1007.98 180.016C1007.61 179.365 1007.42 178.624 1007.42 177.792C1007.42 176.96 1007.6 176.224 1007.95 175.584C1008.31 174.944 1008.8 174.443 1009.42 174.08C1010.05 173.707 1010.75 173.52 1011.53 173.52C1012.32 173.52 1013.02 173.701 1013.63 174.064C1014.25 174.416 1014.73 174.917 1015.08 175.568C1015.44 176.208 1015.61 176.949 1015.61 177.792C1015.61 177.845 1015.61 177.904 1015.6 177.968C1015.6 178.021 1015.6 178.08 1015.6 178.144H1008.28V177.296H1014.99L1014.54 177.632C1014.54 177.024 1014.41 176.485 1014.14 176.016C1013.88 175.536 1013.53 175.163 1013.08 174.896C1012.64 174.629 1012.12 174.496 1011.53 174.496C1010.96 174.496 1010.44 174.629 1009.98 174.896C1009.52 175.163 1009.16 175.536 1008.91 176.016C1008.65 176.496 1008.52 177.045 1008.52 177.664V177.84C1008.52 178.48 1008.66 179.045 1008.94 179.536C1009.23 180.016 1009.62 180.395 1010.12 180.672C1010.64 180.939 1011.22 181.072 1011.87 181.072C1012.38 181.072 1012.85 180.981 1013.29 180.8C1013.74 180.619 1014.12 180.341 1014.44 179.968L1015.08 180.704C1014.71 181.152 1014.24 181.493 1013.68 181.728C1013.12 181.963 1012.51 182.08 1011.84 182.08ZM1017.92 182V173.6H1019.01V175.904L1018.84 175.472C1019.1 174.864 1019.53 174.389 1020.12 174.048C1020.7 173.696 1021.4 173.52 1022.21 173.52C1022.89 173.52 1023.49 173.653 1024 173.92C1024.53 174.176 1024.93 174.571 1025.22 175.104C1025.52 175.637 1025.67 176.309 1025.67 177.12V182H1024.53V177.232C1024.53 176.347 1024.31 175.68 1023.86 175.232C1023.42 174.773 1022.8 174.544 1022 174.544C1021.41 174.544 1020.88 174.667 1020.44 174.912C1020 175.147 1019.66 175.493 1019.41 175.952C1019.18 176.4 1019.06 176.944 1019.06 177.584V182H1017.92ZM1032.32 185.184C1031.55 185.184 1030.82 185.072 1030.11 184.848C1029.41 184.624 1028.84 184.304 1028.4 183.888L1028.98 183.024C1029.37 183.376 1029.86 183.653 1030.43 183.856C1031.02 184.069 1031.64 184.176 1032.29 184.176C1033.36 184.176 1034.14 183.925 1034.64 183.424C1035.14 182.933 1035.39 182.165 1035.39 181.12V179.024L1035.55 177.584L1035.44 176.144V173.6H1036.53V180.976C1036.53 182.427 1036.17 183.488 1035.46 184.16C1034.75 184.843 1033.71 185.184 1032.32 185.184ZM1032.11 181.68C1031.31 181.68 1030.59 181.509 1029.95 181.168C1029.31 180.816 1028.81 180.331 1028.43 179.712C1028.07 179.093 1027.89 178.384 1027.89 177.584C1027.89 176.784 1028.07 176.08 1028.43 175.472C1028.81 174.853 1029.31 174.373 1029.95 174.032C1030.59 173.691 1031.31 173.52 1032.11 173.52C1032.86 173.52 1033.53 173.675 1034.13 173.984C1034.73 174.293 1035.2 174.752 1035.55 175.36C1035.9 175.968 1036.08 176.709 1036.08 177.584C1036.08 178.459 1035.9 179.2 1035.55 179.808C1035.2 180.416 1034.73 180.88 1034.13 181.2C1033.53 181.52 1032.86 181.68 1032.11 181.68ZM1032.22 180.672C1032.84 180.672 1033.39 180.544 1033.87 180.288C1034.35 180.021 1034.73 179.659 1035.01 179.2C1035.29 178.731 1035.42 178.192 1035.42 177.584C1035.42 176.976 1035.29 176.443 1035.01 175.984C1034.73 175.525 1034.35 175.168 1033.87 174.912C1033.39 174.645 1032.84 174.512 1032.22 174.512C1031.62 174.512 1031.07 174.645 1030.58 174.912C1030.1 175.168 1029.72 175.525 1029.44 175.984C1029.17 176.443 1029.04 176.976 1029.04 177.584C1029.04 178.192 1029.17 178.731 1029.44 179.2C1029.72 179.659 1030.1 180.021 1030.58 180.288C1031.07 180.544 1031.62 180.672 1032.22 180.672ZM1039.69 182V173.6H1040.83V182H1039.69ZM1040.27 171.744C1040.03 171.744 1039.83 171.664 1039.67 171.504C1039.51 171.344 1039.43 171.152 1039.43 170.928C1039.43 170.704 1039.51 170.517 1039.67 170.368C1039.83 170.208 1040.03 170.128 1040.27 170.128C1040.5 170.128 1040.7 170.203 1040.86 170.352C1041.02 170.501 1041.1 170.688 1041.1 170.912C1041.1 171.147 1041.02 171.344 1040.86 171.504C1040.71 171.664 1040.51 171.744 1040.27 171.744ZM1043.99 182V173.6H1045.07V175.904L1044.9 175.472C1045.17 174.864 1045.59 174.389 1046.18 174.048C1046.77 173.696 1047.46 173.52 1048.27 173.52C1048.96 173.52 1049.55 173.653 1050.07 173.92C1050.59 174.176 1050.99 174.571 1051.28 175.104C1051.58 175.637 1051.73 176.309 1051.73 177.12V182H1050.59V177.232C1050.59 176.347 1050.37 175.68 1049.92 175.232C1049.49 174.773 1048.87 174.544 1048.07 174.544C1047.47 174.544 1046.95 174.667 1046.5 174.912C1046.06 175.147 1045.72 175.493 1045.47 175.952C1045.24 176.4 1045.12 176.944 1045.12 177.584V182H1043.99ZM1058.37 182.08C1057.49 182.08 1056.72 181.899 1056.06 181.536C1055.4 181.163 1054.88 180.656 1054.51 180.016C1054.14 179.365 1053.95 178.624 1053.95 177.792C1053.95 176.96 1054.13 176.224 1054.48 175.584C1054.84 174.944 1055.33 174.443 1055.95 174.08C1056.58 173.707 1057.28 173.52 1058.06 173.52C1058.85 173.52 1059.55 173.701 1060.16 174.064C1060.78 174.416 1061.26 174.917 1061.62 175.568C1061.97 176.208 1062.14 176.949 1062.14 177.792C1062.14 177.845 1062.14 177.904 1062.13 177.968C1062.13 178.021 1062.13 178.08 1062.13 178.144H1054.82V177.296H1061.52L1061.07 177.632C1061.07 177.024 1060.94 176.485 1060.67 176.016C1060.42 175.536 1060.06 175.163 1059.62 174.896C1059.17 174.629 1058.65 174.496 1058.06 174.496C1057.49 174.496 1056.97 174.629 1056.51 174.896C1056.05 175.163 1055.7 175.536 1055.44 176.016C1055.18 176.496 1055.06 177.045 1055.06 177.664V177.84C1055.06 178.48 1055.19 179.045 1055.47 179.536C1055.76 180.016 1056.15 180.395 1056.66 180.672C1057.17 180.939 1057.75 181.072 1058.4 181.072C1058.91 181.072 1059.39 180.981 1059.82 180.8C1060.27 180.619 1060.66 180.341 1060.98 179.968L1061.62 180.704C1061.24 181.152 1060.77 181.493 1060.21 181.728C1059.65 181.963 1059.04 182.08 1058.37 182.08ZM1066.71 182.08C1066.02 182.08 1065.36 181.984 1064.74 181.792C1064.12 181.589 1063.64 181.339 1063.29 181.04L1063.8 180.144C1064.14 180.4 1064.58 180.624 1065.11 180.816C1065.64 180.997 1066.2 181.088 1066.79 181.088C1067.59 181.088 1068.17 180.965 1068.52 180.72C1068.87 180.464 1069.05 180.128 1069.05 179.712C1069.05 179.403 1068.95 179.163 1068.74 178.992C1068.55 178.811 1068.3 178.677 1067.98 178.592C1067.66 178.496 1067.3 178.416 1066.9 178.352C1066.51 178.288 1066.11 178.213 1065.72 178.128C1065.34 178.043 1064.98 177.92 1064.66 177.76C1064.34 177.589 1064.08 177.36 1063.88 177.072C1063.69 176.784 1063.59 176.4 1063.59 175.92C1063.59 175.461 1063.72 175.051 1063.98 174.688C1064.23 174.325 1064.6 174.043 1065.1 173.84C1065.6 173.627 1066.2 173.52 1066.92 173.52C1067.46 173.52 1068.01 173.595 1068.55 173.744C1069.1 173.883 1069.54 174.069 1069.9 174.304L1069.4 175.216C1069.03 174.96 1068.63 174.779 1068.2 174.672C1067.77 174.555 1067.35 174.496 1066.92 174.496C1066.16 174.496 1065.6 174.629 1065.24 174.896C1064.89 175.152 1064.71 175.483 1064.71 175.888C1064.71 176.208 1064.81 176.459 1065 176.64C1065.2 176.821 1065.46 176.965 1065.78 177.072C1066.11 177.168 1066.47 177.248 1066.86 177.312C1067.25 177.376 1067.64 177.456 1068.02 177.552C1068.42 177.637 1068.78 177.76 1069.1 177.92C1069.43 178.069 1069.69 178.288 1069.88 178.576C1070.08 178.853 1070.18 179.221 1070.18 179.68C1070.18 180.171 1070.04 180.597 1069.77 180.96C1069.5 181.312 1069.11 181.589 1068.58 181.792C1068.07 181.984 1067.45 182.08 1066.71 182.08ZM1072.38 182.08C1072.15 182.08 1071.94 181.995 1071.77 181.824C1071.61 181.653 1071.53 181.445 1071.53 181.2C1071.53 180.944 1071.61 180.736 1071.77 180.576C1071.94 180.416 1072.15 180.336 1072.38 180.336C1072.61 180.336 1072.81 180.416 1072.97 180.576C1073.14 180.736 1073.23 180.944 1073.23 181.2C1073.23 181.445 1073.14 181.653 1072.97 181.824C1072.81 181.995 1072.61 182.08 1072.38 182.08Z" fill="#1A1D21"/>
<path d="M695.503 236H768.503C783.415 236 795.503 248.088 795.503 263C795.503 277.912 783.415 290 768.503 290H695.503C680.591 290 668.503 277.912 668.503 263C668.503 248.088 680.591 236 695.503 236Z" fill="#0033FF"/>
<path d="M695.503 236H768.503C783.415 236 795.503 248.088 795.503 263C795.503 277.912 783.415 290 768.503 290H695.503C680.591 290 668.503 277.912 668.503 263C668.503 248.088 680.591 236 695.503 236Z" stroke="#0033FF" stroke-width="2"/>
<path d="M701.404 269V256.4H707.308C708.82 256.4 709.972 256.7 710.764 257.3C711.556 257.888 711.952 258.68 711.952 259.676C711.952 260.348 711.796 260.924 711.484 261.404C711.172 261.872 710.752 262.238 710.224 262.502C709.708 262.754 709.144 262.88 708.532 262.88L708.856 262.232C709.564 262.232 710.2 262.364 710.764 262.628C711.328 262.88 711.772 263.252 712.096 263.744C712.432 264.236 712.6 264.848 712.6 265.58C712.6 266.66 712.186 267.5 711.358 268.1C710.53 268.7 709.3 269 707.668 269H701.404ZM703.744 267.164H707.524C708.4 267.164 709.072 267.02 709.54 266.732C710.008 266.444 710.242 265.982 710.242 265.346C710.242 264.722 710.008 264.266 709.54 263.978C709.072 263.678 708.4 263.528 707.524 263.528H703.564V261.71H707.056C707.872 261.71 708.496 261.566 708.928 261.278C709.372 260.99 709.594 260.558 709.594 259.982C709.594 259.394 709.372 258.956 708.928 258.668C708.496 258.38 707.872 258.236 707.056 258.236H703.744V267.164ZM718.949 269.126C718.133 269.126 717.413 268.976 716.789 268.676C716.165 268.364 715.679 267.896 715.331 267.272C714.983 266.636 714.809 265.838 714.809 264.878V259.388H717.059V264.572C717.059 265.436 717.251 266.084 717.635 266.516C718.031 266.936 718.589 267.146 719.309 267.146C719.837 267.146 720.293 267.038 720.677 266.822C721.073 266.606 721.379 266.282 721.595 265.85C721.823 265.418 721.937 264.884 721.937 264.248V259.388H724.187V269H722.045V266.408L722.423 267.2C722.099 267.824 721.625 268.304 721.001 268.64C720.377 268.964 719.693 269.126 718.949 269.126ZM730.751 269.126C729.695 269.126 728.879 268.856 728.303 268.316C727.727 267.764 727.439 266.954 727.439 265.886V257.264H729.689V265.832C729.689 266.288 729.803 266.642 730.031 266.894C730.271 267.146 730.601 267.272 731.021 267.272C731.525 267.272 731.945 267.14 732.281 266.876L732.911 268.478C732.647 268.694 732.323 268.856 731.939 268.964C731.555 269.072 731.159 269.126 730.751 269.126ZM725.855 261.188V259.388H732.263V261.188H725.855ZM738.152 269.126C737.096 269.126 736.28 268.856 735.704 268.316C735.128 267.764 734.84 266.954 734.84 265.886V257.264H737.09V265.832C737.09 266.288 737.204 266.642 737.432 266.894C737.672 267.146 738.002 267.272 738.422 267.272C738.926 267.272 739.346 267.14 739.682 266.876L740.312 268.478C740.048 268.694 739.724 268.856 739.34 268.964C738.956 269.072 738.56 269.126 738.152 269.126ZM733.256 261.188V259.388H739.664V261.188H733.256ZM746.166 269.126C745.182 269.126 744.306 268.916 743.538 268.496C742.77 268.064 742.164 267.476 741.72 266.732C741.276 265.988 741.054 265.142 741.054 264.194C741.054 263.234 741.276 262.388 741.72 261.656C742.164 260.912 742.77 260.33 743.538 259.91C744.306 259.49 745.182 259.28 746.166 259.28C747.162 259.28 748.044 259.49 748.812 259.91C749.592 260.33 750.198 260.906 750.63 261.638C751.074 262.37 751.296 263.222 751.296 264.194C751.296 265.142 751.074 265.988 750.63 266.732C750.198 267.476 749.592 268.064 748.812 268.496C748.044 268.916 747.162 269.126 746.166 269.126ZM746.166 267.2C746.718 267.2 747.21 267.08 747.642 266.84C748.074 266.6 748.41 266.252 748.65 265.796C748.902 265.34 749.028 264.806 749.028 264.194C749.028 263.57 748.902 263.036 748.65 262.592C748.41 262.136 748.074 261.788 747.642 261.548C747.21 261.308 746.724 261.188 746.184 261.188C745.632 261.188 745.14 261.308 744.708 261.548C744.288 261.788 743.952 262.136 743.7 262.592C743.448 263.036 743.322 263.57 743.322 264.194C743.322 264.806 743.448 265.34 743.7 265.796C743.952 266.252 744.288 266.6 744.708 266.84C745.14 267.08 745.626 267.2 746.166 267.2ZM753.448 269V259.388H755.59V261.98L755.212 261.188C755.548 260.576 756.034 260.108 756.67 259.784C757.318 259.448 758.062 259.28 758.902 259.28C759.67 259.28 760.354 259.43 760.954 259.73C761.566 260.03 762.046 260.492 762.394 261.116C762.742 261.728 762.916 262.52 762.916 263.492V269H760.666V263.78C760.666 262.928 760.462 262.292 760.054 261.872C759.658 261.452 759.1 261.242 758.38 261.242C757.852 261.242 757.384 261.35 756.976 261.566C756.568 261.782 756.25 262.106 756.022 262.538C755.806 262.958 755.698 263.492 755.698 264.14V269H753.448Z" fill="white"/>
</svg>
